<svg xmlns="http://www.w3.org/2000/svg" width="48" height="48" viewBox="0 0 48 48" id="maybe-creation-large" data-supported-dps="48x48">
  <g>
    <path fill="none" d="M0 0h48v48H0z"/>
    <circle cx="24.5" cy="24.5" r="16.5" fill="#deb8dc" stroke="#523951" stroke-miterlimit="10" stroke-width="2"/>
    <path d="M15 33.66l11.48-1.92a1.9 1.9 0 012.2 1.58 2 2 0 01-1.56 2.18l-4.81.81a1.53 1.53 0 011.17.29 1.55 1.55 0 01.62 1 1.63 1.63 0 01-1.22 1.84 1.58 1.58 0 01.84 1.16 1.68 1.68 0 01-1 1.82 1.57 1.57 0 01.28 1.16 1.74 1.74 0 01-1.5 1.54l-.56.12q-2.18.46-4.38.72a27.87 27.87 0 01-5-.39 3.31 3.31 0 01-2.43-2.15c-1.09-2.27-1.69-6.56-.35-7.8a4.31 4.31 0 001.75-2.4c.64-1.47 1.31-3.16 1.82-4.6s.71-2.09 1.66-2.44a1.94 1.94 0 012.34 1.11 8 8 0 01-.14 3c-.24 2-.25 2.46 0 3.14" fill="#deb8dc"/>
    <path d="M26.48 31.74a1.9 1.9 0 012.2 1.58 2 2 0 01-1.56 2.18l-4.81.81a1.53 1.53 0 011.17.29 1.55 1.55 0 01.62 1 1.63 1.63 0 01-1.22 1.84 1.58 1.58 0 01.84 1.16 1.68 1.68 0 01-1 1.82 1.57 1.57 0 01.28 1.16 1.74 1.74 0 01-1.5 1.54l-.56.12q-2.18.46-4.38.72a27.87 27.87 0 01-5-.39 3.31 3.31 0 01-2.43-2.15c-1.09-2.27-1.69-6.56-.35-7.8a4.31 4.31 0 001.75-2.4c.64-1.47 1.31-3.16 1.82-4.6s.71-2.09 1.66-2.44a1.94 1.94 0 012.34 1.11 8 8 0 01-.14 3c-.24 2-.25 2.46 0 3.14zM16 14a4.19 4.19 0 012.75-1.23 4.18 4.18 0 012.94.67M22 27h3" fill="none" stroke="#523951" stroke-linecap="round" stroke-linejoin="round" stroke-width="2"/>
    <circle cx="18.5" cy="20" r="2" fill="#523951"/>
    <circle cx="30" cy="22" r="2" fill="#523951"/>
    <path d="M29 16.68a4.19 4.19 0 013 0 4.2 4.2 0 012.45 1.71" fill="none" stroke="#523951" stroke-linecap="round" stroke-linejoin="round" stroke-width="2"/>
  </g>
</svg>
